<svg xmlns="http://www.w3.org/2000/svg" viewBox="0 0 883.37388 129.86483"><title>tokyohomme</title><g id="Layer_2" data-name="Layer 2"><g id="Layer_1-2" data-name="Layer 1"><path d="M460.64009,44.79514c4.65811-.00068,9.31845-.086,13.97348.03249,2.64183.06726,3.98932-.68133,3.9403-3.61737-.12993-7.79038-.00628-15.58459-.07865-23.37641-.03659-3.93813-1.061-7.191-5.80827-7.86705-2.45349-.34943-3.04657-2.26049-2.7514-4.50969.29017-2.21086,1.89516-2.45,3.66325-2.45q13.97432-.00048,27.94859.00072c1.95052-.00055,3.7019.27817,4.11189,2.64994.4087,2.3644-.51016,4.07876-2.88963,4.36017-4.37772.51772-5.12653,3.63326-5.51962,7.07011a39.576,39.576,0,0,0-.139,4.47016q-.01207,28.84886-.00232,57.69773c.00031,1.32587-.00561,2.65483.07738,3.977.22389,3.56983,1.2264,6.5054,5.501,6.99209,1.54456.17587,2.87523.89131,3.02553,2.75712.18066,2.242-.23109,4.04626-3.02505,4.04817q-14.97188.01028-29.94381-.01a2.46642,2.46642,0,0,1-2.75822-2.28464c-.21652-1.69692-.31353-3.68944,1.76864-4.0939,6.6778-1.29724,6.83858-6.20973,6.79755-11.40418-.05488-6.96309.03049-13.92735-.03421-20.89028-.03762-4.04816-.25474-4.307-4.20316-4.33774q-13.9735-.1088-27.94832-.00107c-4.00292.0302-4.34239.35342-4.37565,4.2342q-.10871,12.68241.02186,25.36639c.04969,4.6038.22316,4.76233,4.67869,6.32393,1.82967.64128,3.383,1.26634,3.37112,3.62843-.01094,2.17959-.71131,3.49538-3.12217,3.48253-3.99235-.02128-7.985.02314-11.9775.0256-5.4899.00338-10.98.01783-16.46961-.02563-1.64093-.013-3.47033.12436-3.75123-2.24445-.25514-2.15152-.05634-4.1832,2.558-4.5671,4.74936-.69742,5.49676-3.74545,5.47539-7.86765q-.16632-32.08106-.00418-64.16334c.02-4.28035-.73737-7.51876-5.74434-8.25056-2.34148-.34222-2.45321-2.34567-2.34273-4.27921.12735-2.22751,1.62091-2.64876,3.4446-2.64919q14.22356-.00334,28.44711.00345c1.85668.001,3.278.56588,3.44009,2.71862.14807,1.96636-.217,3.46874-2.407,4.30591-5.60163,2.14127-5.60593,2.22264-5.635,8.03148-.03738,7.46072-.059,14.9222.00838,22.3825.03683,4.08265.22036,4.25038,4.20508,4.31338C450.9902,44.854,455.81562,44.79582,460.64009,44.79514Z"/><path d="M651.72733,68.70355c.00043,5.142.12426,10.288-.04421,15.42447-.10743,3.27664.90228,5.47942,4.30042,6.19456a3.14634,3.14634,0,0,1,2.87614,3.42988c-.01835,1.93334-.58655,3.25663-2.77938,3.25721q-13.47934.00348-26.9587-.01978c-1.24214-.00356-2.35843-.41428-2.55671-1.847-.20341-1.46948-.491-3.05709.99208-4.08072a7.119,7.119,0,0,1,2.30057-.91728c2.66872-.66872,3.75391-2.32068,3.72922-5.059-.10164-11.278.03158-22.55942-.18743-33.83445-.11164-5.74628-3.20357-8.26293-9.046-8.08827-7.01254.20962-11.43966,4.62141-11.4485,11.44578-.01225,9.45459.11286,18.91129-.05914,28.36279-.06835,3.75654.72106,6.56368,4.79776,7.48351,2.486.56094,3.11108,2.2932,2.73262,4.51242-.3873,2.27121-2.26251,2.08373-3.91427,2.08758q-12.23285.0284-24.46577,0c-1.81388-.00477-3.82763.21593-4.24639-2.34089-.37791-2.30729.36846-3.90223,2.84109-4.39407,3.64685-.72541,4.72259-3.34694,4.73027-6.60873.02884-12.274.06445-24.54858-.04079-36.82176-.028-3.2627-.7174-6.2887-4.90819-6.90886-2.51823-.37265-2.93657-2.37821-2.6503-4.569.28736-2.19921,1.97149-2.37791,3.69623-2.49675,5.47152-.377,10.94-.802,16.41425-1.13271,4.47144-.27012,4.479-.22244,4.8941,3.99245.06488.65913.03616,1.32745.10195,1.98644.13079,1.31048.80923,1.25717,1.63017.57216.76478-.63816,1.45554-1.36434,2.21941-2.00366,6.31343-5.284,13.63376-6.62594,21.548-5.237a12.2802,12.2802,0,0,1,9.72267,7.71809c1.12409,2.7785,1.97881,2.33232,3.60434.49844,6.08728-6.86772,13.80492-9.34283,22.87432-8.53238,9.12458.81537,14.50293,6.10711,15.43734,15.194.98733,9.60218.52235,19.21563.65332,28.82489.03616,2.65344.1161,5.31333-.0189,7.96038-.19371,3.79878.338,6.958,4.906,7.81245,2.06582.38643,2.33544,2.09407,2.195,3.886-.17329,2.21285-1.69157,2.59916-3.51521,2.59769-8.488-.00687-16.97593.00091-25.46389-.02072-1.57554-.004-3.0576-.25879-3.21193-2.28659-.12883-1.69414-.27736-3.58877,1.83968-4.07859,4.909-1.13574,5.27921-4.59428,5.19708-8.74668-.17713-8.95354-.04683-17.913-.06537-26.86991a33.26632,33.26632,0,0,0-.20724-4.96526c-.69217-4.50431-3.1562-6.6238-7.72569-6.93435a12.95183,12.95183,0,0,0-10.0399,3.5295,7.53038,7.53038,0,0,0-2.71408,6.10086C651.80452,58.08624,651.727,63.39571,651.72733,68.70355Z"/><path d="M808.64458,66.4564c.00207,5.64155.11024,11.286-.03884,16.9236-.08872,3.35509.74179,5.96746,4.26968,6.89991,2.47251.65351,3.06584,2.228,2.75841,4.4873-.36724,2.69916-2.49287,2.26195-4.22669,2.27328-7.99122.05224-15.98305.02572-23.97464.01782-1.89613-.00188-3.771-.04626-4.014-2.61594-.19755-2.08907.43968-3.62741,2.68433-4.0534,3.74666-.711,4.47931-3.21695,4.43723-6.59457-.13023-10.45188.02573-20.90741-.11633-31.359-.10427-7.66507-5.57908-11.45222-12.78771-8.68611-4.5754,1.75568-8.33023,4.18072-7.97463,11.05144.47961,9.26737.21432,18.57925.07664,27.86921-.05841,3.94559.90478,6.86922,5.21446,7.76372,2.2927.47586,2.74091,2.11655,2.5258,4.15181-.23847,2.25681-1.86413,2.46725-3.624,2.46863q-12.73661.01-25.47322.00361c-1.72992-.00068-3.41258-.10236-3.76714-2.32671-.36669-2.30068.33608-3.91477,2.82267-4.40634,4.1275-.816,4.95331-3.5835,4.87624-7.37185-.18554-9.12235-.05079-18.251-.08005-27.37692a26.95011,26.95011,0,0,0-.30944-4.45846c-1.29031-7.51175-7.13912-10.31-14.04936-6.8393-4.35833,2.189-6.74475,5.06951-6.46025,10.50477.50242,9.5978.21146,19.24113.10707,28.86383-.03573,3.29717.476,5.95844,4.2848,6.69291,2.50227.4825,3.11291,2.165,2.78939,4.44206-.32889,2.31449-2.10295,2.26195-3.77233,2.267q-12.237.03711-24.47418-.00536c-1.60968-.00753-3.52179.25712-3.89732-2.08064-.3459-2.1539-.08408-4.07208,2.54647-4.55952,3.743-.69355,4.495-3.1431,4.46071-6.55095-.1253-12.44329-.09835-24.88884-.02378-37.33291.02-3.33517-.62388-5.8746-4.48644-6.54859-2.57086-.44864-2.811-2.46715-2.54208-4.61738.28285-2.26048,2.05289-2.3177,3.72818-2.43892,5.63828-.40794,11.29424-.64038,16.91179-1.23625,2.98949-.3171,3.986.81085,3.76757,3.55451a3.56846,3.56846,0,0,0,.01628.99312c.18505.89157-.52943,2.21434.7313,2.54216.51535.134,1.36958-.74013,1.97132-1.2671a26.41207,26.41207,0,0,1,20.72618-6.7176c5.57468.52348,10.05984,2.67481,12.08164,8.10569,1.2219,3.282,2.1074,1.78,3.50874.30249,6.39434-6.74209,14.252-9.38289,23.48856-8.39083,7.57843.814,12.58966,5.0264,14.37672,12.34167,1.60181,6.55662.67228,13.21786.922,19.82986C808.68007,64.132,808.64251,65.2949,808.64458,66.4564Z"/><path d="M175.24872,30.58846q0,13.43091.01139,26.86179c.00155.78118-.288,1.83324.56741,2.222.9061.41178,1.45993-.56041,2.01386-1.11143,4.474-4.45057,9.0371-8.82057,13.33948-13.43158,3.45212-3.69975,3.30873-4.43578-.63687-7.50483-1.60117-1.24545-1.64273-2.77342-1.38409-4.44151.29858-1.92576,1.82567-2.16283,3.38951-2.16819,6.82127-.02339,13.64272-.04,20.4639-.00831,1.6313.00758,3.53356-.18488,4.02491,2.00953.51653,2.30686.08146,4.30336-2.39221,5.34081-8.01734,3.36246-13.96536,9.50391-20.22535,15.17048-4.97576,4.5041-4.36934,3.276-.58682,8.08984,6.04814,7.69727,12.32579,15.21782,18.60862,22.72819,2.21849,2.652,4.41306,5.42389,8.08935,6.34439,2.253.56415,2.59552,2.36975,2.24837,4.3325-.3437,1.94309-1.92116,2.03143-3.46777,2.03379-5.82317.00882-11.64937-.10518-17.4682.05361-2.81289.07676-4.184-1.62766-5.57383-3.52183-5.89094-8.02866-11.75994-16.07338-17.68-24.08066-.84557-1.14368-1.535-3.11194-2.977-2.85328-.83051.149-.337,2.38244-.35108,3.67224-.047,4.31064.1106,8.62691-.054,12.93178-.13637,3.56591.8353,6.19155,4.60517,7.16267a2.97732,2.97732,0,0,1,2.43506,2.19345c.70938,2.7115-.44777,4.37077-3.54319,4.40622-8.3177.09529-16.6372.03567-24.956.0346-.33221-.00005-.66463-.02689-.99661-.04678-1.49652-.08961-2.54538-.69665-2.69746-2.33109-.14258-1.53246-.16551-3.048,1.475-3.87385a12.49505,12.49505,0,0,1,2.34073-.85183c2.28188-.61973,3.2174-2.15573,3.18341-4.42248-.01491-.99414.04385-1.98914.044-2.98375.0029-22.38484-.05129-44.76994.05218-67.15432.01844-3.99078-.22457-7.315-5.18512-8.00216-1.88918-.26169-2.009-1.94641-1.95928-3.51255.0587-1.85055,1.17735-2.65022,2.87866-2.76438,5.80224-.38935,11.60223-.8617,17.41151-1.08088,4.5138-.17029,4.88662.23645,4.92235,4.69106.06915,8.62177.02019,17.24446.02019,25.86677Z"/><path d="M39.99952,2.99383c11.14977.00086,22.29963-.02568,33.44927.01315,4.86479.017,5.43685.53152,5.75225,5.331.3692,5.61822.07916,11.26866.95884,16.86893.28859,1.83719.13721,3.74151-2.39114,4.1582-2.28662.37685-4.65856,1.25673-5.93572-1.792-1.217-2.90512-2.61988-5.73418-3.79609-8.65468-1.89739-4.71115-5.10176-6.87482-10.38991-6.69064-9.276.32309-8.15621-.6161-8.17456,7.91507-.0435,20.23364.03847,40.46765-.05192,60.701-.0206,4.61026.09541,8.74582,6.02439,9.60976,2.18061.31773,2.06175,2.27237,2.01659,3.96429-.05059,1.89513-1.1892,2.60535-2.922,2.60664q-14.727.0111-29.45409-.00027a2.55494,2.55494,0,0,1-2.90716-2.66746c-.08856-1.75016.05161-3.65219,2.131-3.93095,5.99872-.8042,5.9824-4.98293,5.965-9.53637-.07984-20.8969-.0255-41.79428-.03934-62.69148-.00388-5.85909-.03515-5.85959-5.73356-5.894-.66562-.004-1.33732.06028-1.996-.00661-5.44157-.55253-8.84287,1.957-10.74773,6.91469-1.01019,2.62916-2.33471,5.14012-3.30888,7.7808-1.05411,2.85734-2.96733,2.93871-5.57616,2.4886-2.80548-.484-2.79678-2.27351-2.853-4.35435-.17065-6.317.825-12.5637,1.05953-18.85351.11428-3.06486,2.13264-3.28631,4.47268-3.2818q14.478.0279,28.95608.00127Q37.25368,2.99234,39.99952,2.99383Z"/><path d="M107.84558,99.00452a55.13511,55.13511,0,0,1-10.414-.75771C86.97239,96.22043,80.6248,89.96862,78.126,79.84385a61.242,61.242,0,0,1-.7197-27.08824c2.93064-14.46054,11.8293-21.84392,27.28533-22.76709a61.35575,61.35575,0,0,1,16.37423,1.047c8.65,1.825,14.70774,6.81319,17.39384,15.3253a57.75425,57.75425,0,0,1,1.17311,29.9272c-3.16651,14.73132-12.267,22.21182-27.29763,22.70989C110.84026,99.04742,109.3422,99.00452,107.84558,99.00452Zm13.40059-34.31407c-.27276-6.20231.41678-12.382-1.38271-18.37883-1.511-5.03545-4.4908-7.48376-9.64294-7.94268-6.59578-.58751-10.70825,2.2237-12.68736,8.67493-1.77657,5.791-1.77434,11.85338-1.79282,17.74578-.018,5.72385.03262,11.61018,1.6386,17.26369,1.77419,6.24566,4.7102,8.54061,11.08256,8.58861,6.5006.049,9.725-2.44333,11.52425-8.73437C121.61444,76.2128,120.94191,70.37874,121.24617,64.69045Z"/><path d="M545.49556,99.01286a57.82964,57.82964,0,0,1-10.41581-.747c-10.686-2.047-17.04757-8.46111-19.49435-18.81074a61.65179,61.65179,0,0,1-.66033-26.60741c2.88493-14.32238,11.4196-21.6324,26.72505-22.81625A58.30361,58.30361,0,0,1,559.012,31.11073c8.418,1.89734,14.32788,6.8517,16.97428,15.15663a57.69144,57.69144,0,0,1,1.21806,29.9255c-3.17791,14.94141-12.36712,22.398-27.71788,22.8152C548.15708,99.0442,546.82592,99.01286,545.49556,99.01286Zm13.31256-34.58514c-.28877-6.10768.40443-12.29155-1.42963-18.28013-1.51384-4.943-4.60132-7.38331-9.77431-7.78575-6.44025-.501-10.35166,2.20777-12.45534,8.35645-1.64962,4.82195-1.29348,9.84544-1.7006,14.77858a65.85033,65.85033,0,0,0,1.4689,20.22178c1.53347,6.657,4.656,8.91787,11.26619,8.92537,6.43245.00729,9.59828-2.51831,11.392-8.90092C559.17743,76.04281,558.48466,70.2097,558.80812,64.42772Z"/><path d="M299.55541,64.45321a92.25667,92.25667,0,0,1,.53522-9.91266c2.42934-15.33463,11.09693-23.2812,26.77715-24.471a58.17634,58.17634,0,0,1,14.90246.58419c11.95866,2.1777,18.15786,7.89958,20.824,19.69365a61.2778,61.2778,0,0,1,.05232,26.61646c-2.693,12.54565-10.556,19.928-23.47277,21.69177a56.15508,56.15508,0,0,1-19.84168-.61973c-9.12494-2.02667-14.914-7.57429-17.66083-16.38723A53.07065,53.07065,0,0,1,299.55541,64.45321Zm19.74922.61939c0,3.80893-.09088,7.621.04243,11.4253a25.20327,25.20327,0,0,0,.90176,4.87821c1.5984,6.69332,5.24186,9.46539,12.09368,9.26195,6.6165-.19644,10.1553-3.79155,11.29208-11.52768a91.82909,91.82909,0,0,0,.92782-20.30946c-.361-4.75208-.54427-9.58542-2.29313-14.16414a8.799,8.799,0,0,0-5.892-5.56507c-7.66676-2.50654-14.017.91774-16.02835,8.7098C318.87964,53.47307,319.01772,59.27527,319.30463,65.0726Z"/><path d="M241.89784,31.77616c4.15865.00022,8.31758-.02726,12.47583.01377,1.6574.01635,3.47557-.065,3.75242,2.26834.20569,1.73325.16039,3.47093-1.86092,4.09778-3.231,1.002-3.46,3.28384-2.62634,5.91918,3.70114,11.69906,8.39638,23.04053,12.60948,34.55586.17.46475.38492,1.06143.9109.95941.31423-.06094.64369-.64909.75466-1.05737,2.99618-11.02669,6.6968-21.87236,8.83557-33.11684.58479-3.07434.97843-6.35318-3.35695-7.62385-1.71257-.50194-1.53907-2.36454-1.30981-3.87844.25008-1.65113,1.47011-2.09491,2.91041-2.09989q8.982-.031,17.96421-.00406c1.41484.00439,2.68192.355,2.964,2.02614.264,1.56423.17517,3.27-1.47076,3.84775-4.729,1.6598-6.1702,5.74881-7.67084,9.79993-7.19988,19.43725-12.92114,39.36435-19.61349,58.97056-1.71629,5.02808-3.36847,10.07865-6.24837,14.59385-4.512,7.07412-11.01623,10.033-18.14523,8.36048-4.59357-1.07766-6.15112-3.18586-5.66666-7.81278.1895-1.80973.47007-3.61543.81658-5.40226.73493-3.7899,2.44333-5.05,6.359-4.439a38.90681,38.90681,0,0,0,6.90441.90759c3.89626-.091,5.84976-1.66951,6.49647-5.4651a12.95891,12.95891,0,0,0-.735-7.31373q-11.44191-27.55715-22.7898-55.153c-1.25144-3.036-2.96938-5.55042-6.40194-6.42948-2.16834-.5553-2.853-2.11294-2.572-4.17526.3034-2.22612,2.00509-2.34535,3.73922-2.34776Q235.41035,31.76893,241.89784,31.77616Z"/><path d="M862.94239,64.193c-4.82539,0-9.652-.06749-14.47567.0219-3.69453.06846-3.79544.30159-3.90318,4.079a28.94877,28.94877,0,0,0,1.276,8.82476c2.077,7.25421,7.91592,11.19311,15.466,10.30138a44.68109,44.68109,0,0,0,15.29722-4.24422c1.48463-.75755,3.08968-2.38942,4.75143-.05535,1.96656,2.76219,1.95784,4.78795-.52522,6.91231-5.54846,4.747-11.88945,8.04684-19.21528,8.77005-5.95052.58743-11.98292.6775-17.856-.88161-6.57244-1.74478-11.7247-5.33963-14.771-11.609a34.93479,34.93479,0,0,1-3.781-15.31538c-.01506-6.45334-.34754-12.90188.98386-19.32145,2.72371-13.13223,10.91011-20.60866,24.35449-21.62959a57.13311,57.13311,0,0,1,16.38906.89814c8.79,1.885,14.34983,7.6821,15.7055,16.50191.65638,4.27019,1.19471,8.492.13811,12.82571-.67089,2.75171-2.12119,3.93027-4.85929,3.90925-4.99148-.03832-9.98339-.01088-14.97511-.01088Zm-8.30718-8.34846v-.01376c2.31984,0,4.64107-.05185,6.959.01425,2.4255.06918,3.75849-.85395,3.68935-3.4436-.07061-2.64089-.037-5.263-.9699-7.8164-1.62492-4.44724-3.87043-6.22716-8.36571-6.39785-4.90655-.18631-8.162,1.712-9.78833,5.99047a25.66879,25.66879,0,0,0-1.40378,5.7548c-.70412,5.38654-.20706,5.86816,5.40542,5.9104C851.65254,55.85411,853.14388,55.84457,854.63521,55.84457Z"/></g></g></svg>